<?xml version="1.0" encoding="UTF-8"?>
<svg version="1.1" xmlns="http://www.w3.org/2000/svg" width="512" height="512">
<path d="M0 0 C0.99660645 0.19335938 1.99321289 0.38671875 3.02001953 0.5859375 C51.42148057 10.14963524 95.61559771 32.56737765 131 67 C132.00377686 67.96510498 132.00377686 67.96510498 133.02783203 68.94970703 C141.96491207 77.56407599 150.36706664 86.27314609 157.72607422 96.28173828 C159.02250666 98.03035682 160.35288718 99.74828803 161.69140625 101.46484375 C169.55567241 111.6795598 175.9411092 122.63725258 182 134 C182.66346436 135.24064209 182.66346436 135.24064209 183.34033203 136.50634766 C194.85522013 158.40601548 202.53600264 182.70217586 207 207 C207.16081055 207.80598633 207.32162109 208.61197266 207.48730469 209.44238281 C212.91249702 237.39610578 212.48097109 270.09984329 207 298 C206.83902832 298.89557617 206.67805664 299.79115234 206.51220703 300.71386719 C198.62297508 344.32063051 178.93350867 385.45856217 150 419 C149.36578125 419.74507813 148.7315625 420.49015625 148.078125 421.2578125 C136.26698485 434.76279833 123.51639772 447.43418743 109 458 C107.85005169 458.85649066 106.70031411 459.71326433 105.55078125 460.5703125 C98.32011211 465.89891985 90.83398008 470.65494549 83.08203125 475.1875 C81.01952404 476.400432 78.99086878 477.67275415 77 479 C76.01 479 75.02 479 74 479 C73.34 477.02 72.68 475.04 72 473 C71.22914063 473.3609375 70.45828125 473.721875 69.6640625 474.09375 C68.15972656 474.78984375 68.15972656 474.78984375 66.625 475.5 C65.62726563 475.9640625 64.62953125 476.428125 63.6015625 476.90625 C61 478 61 478 59 478 C59.33 478.7425 59.66 479.485 60 480.25 C61 483 61 483 61 487 C59.06532058 487.83986084 57.12714871 488.67168027 55.1875 489.5 C53.56908203 490.19609375 53.56908203 490.19609375 51.91796875 490.90625 C49 492 49 492 46 492 C45.34 489.69 44.68 487.38 44 485 C42.98679687 485.433125 42.98679687 485.433125 41.953125 485.875 C41.06109375 486.24625 40.1690625 486.6175 39.25 487 C38.36828125 487.37125 37.4865625 487.7425 36.578125 488.125 C34 489 34 489 30 489 C30.66 491.97 31.32 494.94 32 498 C10.46520119 504.35870043 -11.47159985 509.08774181 -34.01171875 509.203125 C-34.93436523 509.21018463 -35.85701172 509.21724426 -36.80761719 509.22451782 C-75.04023383 509.45071542 -75.04023383 509.45071542 -92 506 C-92.99805664 505.80664062 -93.99611328 505.61328125 -95.02441406 505.4140625 C-136.11124885 497.29443184 -173.20444662 479.92470131 -206 454 C-207.03769531 453.18789063 -208.07539063 452.37578125 -209.14453125 451.5390625 C-224.71123494 438.86988389 -239.27786525 424.31201036 -251 408 C-251.8637527 406.83011544 -252.72835469 405.6608575 -253.59375 404.4921875 C-268.73707742 383.8661757 -280.8192165 361.25702873 -289 337 C-289.41306396 335.77748535 -289.41306396 335.77748535 -289.83447266 334.53027344 C-293.07255506 324.75942323 -295.60485473 314.87781263 -297.75 304.8125 C-297.94875732 303.88783936 -298.14751465 302.96317871 -298.35229492 302.01049805 C-301.64499027 285.80388823 -302.37530278 269.8696298 -302.3125 253.375 C-302.31034485 252.35676147 -302.3081897 251.33852295 -302.30596924 250.28942871 C-302.25626609 235.6652116 -301.94207988 221.37195362 -299 207 C-298.70996094 205.50509033 -298.70996094 205.50509033 -298.4140625 203.97998047 C-290.78540781 165.37168872 -275.07257683 129.21833121 -251 98 C-250.03513672 96.74703125 -250.03513672 96.74703125 -249.05078125 95.46875 C-234.96644299 77.53819756 -218.6231663 60.25059511 -200 47 C-199.38237793 46.55398437 -198.76475586 46.10796875 -198.12841797 45.6484375 C-166.2928961 22.75691487 -130.61290977 7.10612895 -92 0 C-91.19933105 -0.16081055 -90.39866211 -0.32162109 -89.57373047 -0.48730469 C-61.49587547 -5.9794441 -28.01022065 -5.73396692 0 0 Z " fill="#050503" transform="translate(302,3)"/>
<path d="M0 0 C0.99660645 0.19335938 1.99321289 0.38671875 3.02001953 0.5859375 C51.42148057 10.14963524 95.61559771 32.56737765 131 67 C132.00377686 67.96510498 132.00377686 67.96510498 133.02783203 68.94970703 C141.96491207 77.56407599 150.36706664 86.27314609 157.72607422 96.28173828 C159.02250666 98.03035682 160.35288718 99.74828803 161.69140625 101.46484375 C169.55567241 111.6795598 175.9411092 122.63725258 182 134 C182.66346436 135.24064209 182.66346436 135.24064209 183.34033203 136.50634766 C194.85522013 158.40601548 202.53600264 182.70217586 207 207 C207.16081055 207.80598633 207.32162109 208.61197266 207.48730469 209.44238281 C212.91249702 237.39610578 212.48097109 270.09984329 207 298 C206.83902832 298.89557617 206.67805664 299.79115234 206.51220703 300.71386719 C198.62297508 344.32063051 178.93350867 385.45856217 150 419 C149.36578125 419.74507813 148.7315625 420.49015625 148.078125 421.2578125 C136.26698485 434.76279833 123.51639772 447.43418743 109 458 C107.85005169 458.85649066 106.70031411 459.71326433 105.55078125 460.5703125 C98.32011211 465.89891985 90.83398008 470.65494549 83.08203125 475.1875 C81.01952404 476.400432 78.99086878 477.67275415 77 479 C76.01 479 75.02 479 74 479 C73.34 477.02 72.68 475.04 72 473 C71.22914063 473.3609375 70.45828125 473.721875 69.6640625 474.09375 C68.15972656 474.78984375 68.15972656 474.78984375 66.625 475.5 C65.62726563 475.9640625 64.62953125 476.428125 63.6015625 476.90625 C61 478 61 478 59 478 C59.33 478.7425 59.66 479.485 60 480.25 C61 483 61 483 61 487 C59.06532058 487.83986084 57.12714871 488.67168027 55.1875 489.5 C53.56908203 490.19609375 53.56908203 490.19609375 51.91796875 490.90625 C49 492 49 492 46 492 C45.34 489.69 44.68 487.38 44 485 C42.98679687 485.433125 42.98679687 485.433125 41.953125 485.875 C41.06109375 486.24625 40.1690625 486.6175 39.25 487 C38.36828125 487.37125 37.4865625 487.7425 36.578125 488.125 C34 489 34 489 30 489 C30.66 491.97 31.32 494.94 32 498 C10.46520119 504.35870043 -11.47159985 509.08774181 -34.01171875 509.203125 C-34.93436523 509.21018463 -35.85701172 509.21724426 -36.80761719 509.22451782 C-75.04023383 509.45071542 -75.04023383 509.45071542 -92 506 C-92.99805664 505.80664062 -93.99611328 505.61328125 -95.02441406 505.4140625 C-136.11124885 497.29443184 -173.20444662 479.92470131 -206 454 C-207.03769531 453.18789063 -208.07539063 452.37578125 -209.14453125 451.5390625 C-224.71123494 438.86988389 -239.27786525 424.31201036 -251 408 C-251.8637527 406.83011544 -252.72835469 405.6608575 -253.59375 404.4921875 C-268.73707742 383.8661757 -280.8192165 361.25702873 -289 337 C-289.41306396 335.77748535 -289.41306396 335.77748535 -289.83447266 334.53027344 C-293.07255506 324.75942323 -295.60485473 314.87781263 -297.75 304.8125 C-297.94875732 303.88783936 -298.14751465 302.96317871 -298.35229492 302.01049805 C-301.64499027 285.80388823 -302.37530278 269.8696298 -302.3125 253.375 C-302.31034485 252.35676147 -302.3081897 251.33852295 -302.30596924 250.28942871 C-302.25626609 235.6652116 -301.94207988 221.37195362 -299 207 C-298.70996094 205.50509033 -298.70996094 205.50509033 -298.4140625 203.97998047 C-290.78540781 165.37168872 -275.07257683 129.21833121 -251 98 C-250.03513672 96.74703125 -250.03513672 96.74703125 -249.05078125 95.46875 C-234.96644299 77.53819756 -218.6231663 60.25059511 -200 47 C-199.38237793 46.55398437 -198.76475586 46.10796875 -198.12841797 45.6484375 C-166.2928961 22.75691487 -130.61290977 7.10612895 -92 0 C-91.19933105 -0.16081055 -90.39866211 -0.32162109 -89.57373047 -0.48730469 C-61.49587547 -5.9794441 -28.01022065 -5.73396692 0 0 Z M-155 72 C-156.32 70.02 -157.64 68.04 -159 66 C-160.58500588 66.9346695 -162.16793416 67.87286263 -163.75 68.8125 C-164.63171875 69.33457031 -165.5134375 69.85664062 -166.421875 70.39453125 C-168.71972797 71.82546696 -170.86506946 73.33894423 -173 75 C-172.5359375 76.1446875 -172.5359375 76.1446875 -172.0625 77.3125 C-171.32106407 79.18789677 -170.63771783 81.08684652 -170 83 C-170.85980469 83.65484375 -171.71960938 84.3096875 -172.60546875 84.984375 C-217.82065064 119.7518897 -247.64830427 169.53209418 -255.86621094 226.19970703 C-262.66320623 280.14423426 -248.53240619 336.66822832 -215.47753906 380.10253906 C-211.49063045 385.22254133 -207.30722494 390.1482199 -203 395 C-201.69869141 396.485 -201.69869141 396.485 -200.37109375 398 C-195.54213159 403.42613153 -190.62730683 408.41272347 -185 413 C-184.4834082 413.42893555 -183.96681641 413.85787109 -183.43457031 414.29980469 C-174.35264096 421.83153386 -165.04434416 428.80089227 -155 435 C-154.33726074 435.40959961 -153.67452148 435.81919922 -152.99169922 436.24121094 C-130.1068675 450.15127947 -104.415853 458.9439215 -78 463 C-77.34193359 463.10441406 -76.68386719 463.20882813 -76.00585938 463.31640625 C-55.9948358 466.37122917 -34.96868596 466.30249553 -15 463 C-14.2383252 462.8870459 -13.47665039 462.7740918 -12.69189453 462.65771484 C17.17379352 458.18952558 47.44923196 446.75680007 72 429 C72.64759277 428.5359375 73.29518555 428.071875 73.96240234 427.59375 C82.39381287 421.51506116 90.51186208 415.22654358 98 408 C98.59280762 407.43297363 99.18561523 406.86594727 99.79638672 406.28173828 C109.01840263 397.42342031 117.51577651 388.37639187 125 378 C125.40347656 377.45150391 125.80695313 376.90300781 126.22265625 376.33789062 C158.95379896 331.45096983 170.75515695 275.08993547 162.90625 220.55859375 C156.5279376 180.08242809 138.01083829 143.5421579 111 113 C110.52884766 112.46568359 110.05769531 111.93136719 109.57226562 111.38085938 C104.06019003 105.16191461 98.45468195 99.25735478 92 94 C90.94650737 93.1108041 89.89313272 92.2214684 88.83984375 91.33203125 C18.26271142 32.49511478 -75.69079488 30.24603613 -155 72 Z " fill="#E4A84A" transform="translate(302,3)"/>
<path d="M0 0 C1.01907944 -0.00299103 1.01907944 -0.00299103 2.05874634 -0.00604248 C15.2579955 -0.00163545 28.08975617 1.6513653 41 4.3125 C42.19109375 4.54743164 42.19109375 4.54743164 43.40625 4.78710938 C87.15147773 13.64199015 130.21759638 37.61975197 158.75 72.375 C159.48089844 73.20644531 160.21179688 74.03789063 160.96484375 74.89453125 C187.96161145 106.07089332 204.77180362 145.20321534 209.48364258 186.07519531 C209.65328238 187.53991291 209.83655944 189.00316164 210.0378418 190.46386719 C212.22020429 207.17009457 211.91318699 225.82634941 208.75 242.375 C208.46587914 244.03879537 208.18346374 245.70288247 207.90234375 247.3671875 C205.99440213 258.33785182 203.5475788 268.90348271 199.75 279.375 C199.47704102 280.13071289 199.20408203 280.88642578 198.92285156 281.66503906 C192.35946233 299.52761108 184.03024965 316.98489196 172.75 332.375 C171.98171875 333.426875 171.2134375 334.47875 170.421875 335.5625 C164.68162129 343.28089128 158.40401029 350.43331633 151.75 357.375 C151.19183594 357.96571289 150.63367188 358.55642578 150.05859375 359.16503906 C141.0189486 368.69640118 131.54736133 376.89604259 120.75 384.375 C119.91082031 384.96522949 119.91082031 384.96522949 119.0546875 385.56738281 C74.01502855 416.98091306 17.79237584 428.63215404 -36.203125 419.91845703 C-58.80165585 415.88766139 -80.07497158 408.25960556 -100.25 397.375 C-100.84329102 397.06095215 -101.43658203 396.7469043 -102.04785156 396.42333984 C-123.29306014 385.12182531 -143.89616666 368.94322161 -159.25 350.375 C-159.98347656 349.54097656 -160.71695313 348.70695312 -161.47265625 347.84765625 C-179.49195727 327.02979501 -192.52659299 302.4112438 -201.25 276.375 C-201.53069336 275.54887207 -201.81138672 274.72274414 -202.10058594 273.87158203 C-219.24516185 222.32678812 -213.17963596 165.3765883 -189.3125 117.0625 C-173.77658118 86.58965581 -151.87322465 60.55815841 -124.25 40.375 C-124.745 39.26125 -124.745 39.26125 -125.25 38.125 C-126.25 35.375 -126.25 35.375 -126.25 31.375 C-123.625 29.234375 -123.625 29.234375 -120.25 27.125 C-119.13625 26.41859375 -118.0225 25.7121875 -116.875 24.984375 C-116.00875 24.45328125 -115.1425 23.9221875 -114.25 23.375 C-112.25 25.375 -110.25 27.375 -108.25 29.375 C-107.14527344 28.75753906 -106.04054688 28.14007813 -104.90234375 27.50390625 C-72.30194501 9.61903938 -37.22916424 0.0286097 0 0 Z M-8.25 14.375 C-8.25 39.455 -8.25 64.535 -8.25 90.375 C-12.87 90.705 -17.49 91.035 -22.25 91.375 C-23.24 91.705 -24.23 92.035 -25.25 92.375 C-25.21519531 91.34761719 -25.18039063 90.32023437 -25.14453125 89.26171875 C-24.85632719 77.17177781 -26.04191386 67.45297228 -33.25 57.375 C-38.99966517 49.16119262 -39.50486104 42.94124236 -39.3125 33.125 C-39.27816811 30.95318988 -39.24800437 28.78130855 -39.22265625 26.609375 C-39.20468994 25.65256836 -39.18672363 24.69576172 -39.16821289 23.70996094 C-39.08890142 21.3508393 -39.08890142 21.3508393 -40.25 19.375 C-44.07817131 19.85352141 -47.76120518 20.45599633 -51.5 21.4140625 C-52.7375 21.73117188 -53.975 22.04828125 -55.25 22.375 C-56.2962519 46.12040343 -56.2962519 46.12040343 -45.93359375 66.86328125 C-41.40416314 73.62064525 -40.83603331 79.88479072 -41.0625 87.875 C-41.07603516 88.7928125 -41.08957031 89.710625 -41.10351562 90.65625 C-41.13851903 92.89646803 -41.18761131 95.13540594 -41.25 97.375 C-41.85328125 97.56835938 -42.4565625 97.76171875 -43.078125 97.9609375 C-43.87734375 98.22132813 -44.6765625 98.48171875 -45.5 98.75 C-46.28890625 99.00523437 -47.0778125 99.26046875 -47.890625 99.5234375 C-50.11627958 100.32673667 -52.15931672 101.27211662 -54.25 102.375 C-54.57871094 101.15876953 -54.57871094 101.15876953 -54.9140625 99.91796875 C-58.33863295 87.95981421 -62.80700394 77.55809348 -73.07421875 70.0390625 C-81.86936483 63.43793334 -83.70088832 52.6176575 -85.57421875 42.30859375 C-86.10658215 39.20688194 -86.10658215 39.20688194 -88.25 36.375 C-93.0774799 37.78792095 -96.9662359 39.80474154 -101.25 42.375 C-100.80491746 44.69466549 -100.34564687 47.01036317 -99.87109375 49.32421875 C-99.44724448 51.40614502 -99.04447688 53.49244687 -98.66015625 55.58203125 C-96.45766194 66.56843776 -92.17274947 74.82267236 -83.3359375 81.91015625 C-75.01236865 88.75294038 -71.53912275 95.98144496 -70.00683594 106.54467773 C-69.72571047 110.35755527 -70.0488109 112.10761559 -72.36328125 115.18359375 C-74.903735 117.19942763 -77.38260534 118.86688931 -80.25 120.375 C-81.45864802 118.56202797 -82.64830472 116.73590653 -83.80078125 114.88671875 C-90.6971305 103.83115222 -96.66885556 97.32086997 -108.9765625 92.5625 C-115.76972987 89.0141789 -118.64956883 84.52254877 -121.875 77.8125 C-125.16857434 70.96559716 -125.16857434 70.96559716 -130.25 65.375 C-133.46524305 66.78344718 -135.57183868 68.47844786 -138 71 C-138.61359375 71.63164063 -139.2271875 72.26328125 -139.859375 72.9140625 C-140.31828125 73.39617187 -140.7771875 73.87828125 -141.25 74.375 C-140.9921875 74.87773438 -140.734375 75.38046875 -140.46875 75.8984375 C-139.49137436 77.88451493 -138.56516505 79.89573643 -137.65625 81.9140625 C-131.47073415 95.37975906 -124.35987879 103.24155471 -110.87548828 109.55761719 C-105.69469327 112.02088242 -102.16432247 114.29906086 -99.25 119.375 C-98.67507812 120.34179688 -98.10015625 121.30859375 -97.5078125 122.3046875 C-93.02153145 130.45974949 -93.02153145 130.45974949 -93.8984375 133.97265625 C-95.24784566 136.37117075 -96.68331736 138.51773314 -98.375 140.6875 C-98.91382813 141.38488281 -99.45265625 142.08226562 -100.0078125 142.80078125 C-100.41773438 143.32027344 -100.82765625 143.83976563 -101.25 144.375 C-101.85585937 143.72273437 -102.46171875 143.07046875 -103.0859375 142.3984375 C-112.62809677 132.44523137 -122.11663501 126.50557726 -135.8125 124.5625 C-145.17342621 122.91362673 -150.42839232 116.40571909 -156.39453125 109.51416016 C-158.7965291 106.77164585 -160.81056891 104.69291285 -164.25 103.375 C-165.45271059 105.11458141 -166.6367301 106.86709745 -167.8125 108.625 C-168.80443359 110.08679688 -168.80443359 110.08679688 -169.81640625 111.578125 C-171.44747373 114.18153523 -171.44747373 114.18153523 -171.12890625 116.59375 C-169.93979881 119.00367442 -168.07517015 120.27748147 -165.98046875 121.89453125 C-164.04866201 123.54725079 -162.54533389 125.34487112 -160.9375 127.3125 C-153.79677679 135.66698853 -144.82261238 139.71360757 -134.25 141.8125 C-123.47179242 144.07501404 -116.47216335 149.08130262 -110.25 158.375 C-110.40601906 161.75205767 -111.45785601 163.85722594 -112.8125 167 C-114.44593103 170.22361488 -114.44593103 170.22361488 -114.25 173.375 C-114.95125 172.90449219 -115.6525 172.43398437 -116.375 171.94921875 C-128.24002186 164.16279815 -137.70594314 162.10623942 -151.73046875 162.58984375 C-160.15475416 162.73046156 -165.96916715 160.52248264 -172.9375 155.8125 C-177.78516472 152.55032331 -181.30857021 150.375 -187.25 150.375 C-188.24 154.995 -189.23 159.615 -190.25 164.375 C-187.9296875 165.48875 -187.9296875 165.48875 -185.5625 166.625 C-182.6431706 168.07648731 -180.23410892 169.38779038 -177.6875 171.4375 C-170.52531301 177.13052043 -162.79812521 178.50550794 -153.90112305 178.25830078 C-141.57677105 177.94398699 -132.51875163 179.04739988 -122.80859375 187.203125 C-121.30857415 188.57532037 -121.30857415 188.57532037 -119.25 188.375 C-119.58 192.995 -119.91 197.615 -120.25 202.375 C-145.33 202.375 -170.41 202.375 -196.25 202.375 C-196.25 207.655 -196.25 212.935 -196.25 218.375 C-171.17 218.375 -146.09 218.375 -120.25 218.375 C-119.92 222.335 -119.59 226.295 -119.25 230.375 C-118.755 232.85 -118.755 232.85 -118.25 235.375 C-119.27738281 235.34019531 -120.30476563 235.30539062 -121.36328125 235.26953125 C-133.45322219 234.98132719 -143.17202772 236.16691386 -153.25 243.375 C-161.46380738 249.12466517 -167.68375764 249.62986104 -177.5 249.4375 C-179.67181012 249.40316811 -181.84369145 249.37300437 -184.015625 249.34765625 C-184.97243164 249.32968994 -185.92923828 249.31172363 -186.91503906 249.29321289 C-189.2741607 249.21390142 -189.2741607 249.21390142 -191.25 250.375 C-190.77147859 254.20317131 -190.16900367 257.88620518 -189.2109375 261.625 C-188.89382812 262.8625 -188.57671875 264.1 -188.25 265.375 C-172.5292766 265.78417526 -158.93094105 266.07180639 -145.25 257.375 C-144.14785156 256.68277344 -144.14785156 256.68277344 -143.0234375 255.9765625 C-141.66842298 255.12413519 -140.31865247 254.26325963 -138.9765625 253.390625 C-135.79462793 251.51889878 -132.97097214 251.2116473 -129.36328125 251.05859375 C-127.9565918 250.99575195 -127.9565918 250.99575195 -126.52148438 250.93164062 C-125.54501953 250.89232422 -124.56855469 250.85300781 -123.5625 250.8125 C-122.57443359 250.76931641 -121.58636719 250.72613281 -120.56835938 250.68164062 C-118.12904454 250.57558346 -115.68962887 250.47352286 -113.25 250.375 C-112.95996094 251.26251953 -112.95996094 251.26251953 -112.6640625 252.16796875 C-111.30585281 256.2896645 -109.92949415 260.3700524 -108.25 264.375 C-109.46623047 264.70371094 -109.46623047 264.70371094 -110.70703125 265.0390625 C-121.90752133 268.24665337 -133.15980543 272.49084683 -140.0625 282.3125 C-144.34718813 288.22735225 -150.17393054 291.64208503 -157.25 293.375 C-158.70733007 293.51119907 -160.16582347 293.63526133 -161.625 293.75 C-166.54023843 294.19228801 -169.97493179 295.9654161 -174.25 298.375 C-172.83707905 303.2024799 -170.82025846 307.0912359 -168.25 311.375 C-165.93033451 310.92991746 -163.61463683 310.47064687 -161.30078125 309.99609375 C-159.21885498 309.57224448 -157.13255313 309.16947688 -155.04296875 308.78515625 C-142.3805698 306.2466682 -133.65052565 300.4809548 -125.875 290.25 C-119.5403533 283.31205361 -111.24410384 280.66205534 -102.02734375 279.98046875 C-98.25 280.375 -98.25 280.375 -95.44140625 282.48828125 C-93.42557237 285.028735 -91.75811069 287.50760534 -90.25 290.375 C-91.62671875 291.2103125 -91.62671875 291.2103125 -93.03125 292.0625 C-104.19342301 298.94966876 -111.79234738 305.16025365 -117.25 317.375 C-121.63648475 326.91984021 -129.29621588 330.65525962 -138.515625 334.8828125 C-141.3004554 336.40253423 -143.1364428 338.02995796 -145.25 340.375 C-143.84155282 343.59024305 -142.14655214 345.69683868 -139.625 348.125 C-138.67753906 349.04539062 -138.67753906 349.04539062 -137.7109375 349.984375 C-137.22882813 350.44328125 -136.74671875 350.9021875 -136.25 351.375 C-135.74726563 351.1171875 -135.24453125 350.859375 -134.7265625 350.59375 C-132.74048507 349.61637436 -130.72926357 348.69016505 -128.7109375 347.78125 C-115.24524094 341.59573415 -107.38344529 334.48487879 -101.06738281 321.00048828 C-98.60411758 315.81969327 -96.32593914 312.28932247 -91.25 309.375 C-90.28320312 308.80007813 -89.31640625 308.22515625 -88.3203125 307.6328125 C-80.16525051 303.14653145 -80.16525051 303.14653145 -76.65234375 304.0234375 C-74.25382925 305.37284566 -72.10726686 306.80831736 -69.9375 308.5 C-69.24011719 309.03882813 -68.54273438 309.57765625 -67.82421875 310.1328125 C-67.30472656 310.54273438 -66.78523437 310.95265625 -66.25 311.375 C-66.90226563 311.98085938 -67.55453125 312.58671875 -68.2265625 313.2109375 C-74.05329033 318.7970335 -78.52954238 324.21060525 -82.25 331.375 C-82.61480469 332.014375 -82.97960937 332.65375 -83.35546875 333.3125 C-84.46749855 335.87648138 -84.72966621 338.22760427 -85.0625 341 C-86.95273439 352.410393 -91.77172185 358.50850073 -100.43652344 365.82202148 C-104.14366292 368.94572317 -104.14366292 368.94572317 -106.171875 373.26171875 C-106.19765625 373.95910156 -106.2234375 374.65648437 -106.25 375.375 C-104.48628182 376.40807771 -102.71374967 377.42612049 -100.9375 378.4375 C-99.95136719 379.00597656 -98.96523437 379.57445312 -97.94921875 380.16015625 C-95.237406 381.74731604 -95.237406 381.74731604 -92.25 380.375 C-91.07400749 378.96380898 -89.9031084 377.54787992 -88.765625 376.10546875 C-87.09061312 374.19301962 -85.27868266 372.67221824 -83.3125 371.0625 C-75.13994557 364.06185903 -70.99868142 355.33797186 -69.3125 344.875 C-67.77565958 336.20197809 -64.61901652 331.33834503 -58.3125 325.3125 C-57.54123779 324.55936523 -57.54123779 324.55936523 -56.75439453 323.79101562 C-52.95881272 320.34994624 -52.95881272 320.34994624 -49.59765625 320.46875 C-47.58794092 321.24454693 -45.60330468 322.08478247 -43.625 322.9375 C-40.40138512 324.57093103 -40.40138512 324.57093103 -37.25 324.375 C-37.70890625 325.02984375 -38.1678125 325.6846875 -38.640625 326.359375 C-46.01850914 337.33320267 -48.48946173 345.75018837 -48.125 358.875 C-47.87320019 368.35541436 -48.5688556 374.50160223 -54.25 382.375 C-54.72566406 383.04144531 -55.20132813 383.70789063 -55.69140625 384.39453125 C-56.12324219 384.98621094 -56.55507812 385.57789063 -57 386.1875 C-59.7710765 389.74101876 -59.7710765 389.74101876 -61.25 396.375 C-56.63 397.695 -52.01 399.015 -47.25 400.375 C-44.86232519 397.98732519 -43.84410183 395.58151533 -42.4453125 392.54296875 C-41.25 390.375 -41.25 390.375 -39.2890625 387.9453125 C-31.80580982 378.51240012 -31.75219531 368.55669153 -32.34667969 357.04174805 C-32.62127502 350.08211792 -31.558742 345.47805061 -28.25 339.375 C-27.65058594 337.96541016 -27.65058594 337.96541016 -27.0390625 336.52734375 C-25.875 334.3125 -25.875 334.3125 -22.25 330.375 C-17.63 330.375 -13.01 330.375 -8.25 330.375 C-8.25 355.455 -8.25 380.535 -8.25 406.375 C-2.97 406.375 2.31 406.375 7.75 406.375 C7.75 381.295 7.75 356.215 7.75 330.375 C11.71 330.045 15.67 329.715 19.75 329.375 C21.4 329.045 23.05 328.715 24.75 328.375 C24.71519531 329.23480469 24.68039062 330.09460938 24.64453125 330.98046875 C24.36838135 343.03901422 25.57023875 353.46608974 32.75 363.375 C33.67769283 364.80540905 34.59452369 366.24292508 35.5 367.6875 C36.11101562 368.64076172 36.11101562 368.64076172 36.734375 369.61328125 C38.68393736 372.99502211 38.86044218 375.74685783 38.8125 379.55859375 C38.80476562 380.56857422 38.79703125 381.57855469 38.7890625 382.61914062 C38.76306861 384.74414121 38.73702712 386.86914121 38.7109375 388.99414062 C38.70320312 390.00541016 38.69546875 391.01667969 38.6875 392.05859375 C38.67009766 393.44389282 38.67009766 393.44389282 38.65234375 394.85717773 C38.7428404 397.19040758 39.08658656 399.14479469 39.75 401.375 C44.61896303 400.77880045 49.07790951 399.80523178 53.75 398.375 C54.13636308 393.71104572 54.46247586 389.04608887 54.75 384.375 C54.81832031 383.31410156 54.88664063 382.25320313 54.95703125 381.16015625 C55.34970593 370.09254758 51.78606351 362.4406237 45.3671875 353.625 C39.97792885 346.12690101 40.41486289 339.26660644 40.75 330.375 C40.688125 329.62089844 40.62625 328.86679687 40.5625 328.08984375 C40.5 326.3125 40.5 326.3125 41.75 323.375 C45.59965454 321.23325211 49.56997166 319.74312391 53.75 318.375 C53.96914063 319.18582031 54.18828125 319.99664062 54.4140625 320.83203125 C57.92479263 333.09104418 62.51447133 342.83502135 72.609375 350.8515625 C80.76164034 357.36640703 82.28301042 364.79748517 83.94140625 374.7890625 C84.75095902 378.37925305 85.96969037 381.16945634 87.75 384.375 C92.5774799 382.96207905 96.4662359 380.94525846 100.75 378.375 C100.53923828 377.11236328 100.53923828 377.11236328 100.32421875 375.82421875 C99.93999474 373.51626092 99.56767613 371.2062909 99.20703125 368.89453125 C97.10319961 356.7943117 93.29364935 347.5671363 83.61328125 339.62109375 C74.97682218 332.32649774 71.12348162 325.34393924 69.5065918 314.20507812 C69.22589306 310.39229139 69.54886192 308.6423166 71.86328125 305.56640625 C74.403735 303.55057237 76.88260534 301.88311069 79.75 300.375 C80.94615102 302.16922653 82.11626228 303.98189369 83.23046875 305.828125 C89.71825903 316.45800564 96.71236557 323.61234168 108.375 328.25 C117.1267507 332.08638387 120.21944831 339.89213801 124.0390625 348.16796875 C125.65391533 351.19489609 127.19358698 353.12557981 129.75 355.375 C132.96524305 353.96655282 135.07183868 352.27155214 137.5 349.75 C138.42039062 348.80253906 138.42039062 348.80253906 139.359375 347.8359375 C139.81828125 347.35382813 140.2771875 346.87171875 140.75 346.375 C140.4921875 345.87226563 140.234375 345.36953125 139.96875 344.8515625 C138.99137436 342.86548507 138.06516505 340.85426357 137.15625 338.8359375 C130.97073415 325.37024094 123.85987879 317.50844529 110.37548828 311.19238281 C105.19469327 308.72911758 101.66432247 306.45093914 98.75 301.375 C98.17507813 300.40820312 97.60015625 299.44140625 97.0078125 298.4453125 C92.52153145 290.29025051 92.52153145 290.29025051 93.3984375 286.77734375 C94.74784566 284.37882925 96.18331736 282.23226686 97.875 280.0625 C98.68324219 279.01642578 98.68324219 279.01642578 99.5078125 277.94921875 C99.91773438 277.42972656 100.32765625 276.91023438 100.75 276.375 C101.35585938 277.02726562 101.96171875 277.67953125 102.5859375 278.3515625 C111.6879025 287.84561214 121.14855139 294.26766252 134.25 296.25 C144.07650962 297.98884738 149.21398135 303.53129934 155.45092773 310.91723633 C157.72332698 313.53830459 159.25497339 315.22102174 162.61328125 316.265625 C163.31839844 316.30171875 164.02351563 316.3378125 164.75 316.375 C165.785969 314.80152824 166.80331732 313.21578454 167.8125 311.625 C168.38097656 310.74328125 168.94945312 309.8615625 169.53515625 308.953125 C170.93878393 306.51825309 170.93878393 306.51825309 170.59765625 304.1875 C169.44953436 301.73252969 167.58990283 300.48389174 165.48046875 298.85546875 C163.54866201 297.20274921 162.04533389 295.40512888 160.4375 293.4375 C153.43685903 285.26494557 144.71297186 281.12368142 134.25 279.4375 C125.57697809 277.90065958 120.71334503 274.74401652 114.6875 268.4375 C113.93436523 267.66623779 113.93436523 267.66623779 113.16601562 266.87939453 C109.72394922 263.08271298 109.72394922 263.08271298 109.84375 259.828125 C110.29234375 258.61382812 110.29234375 258.61382812 110.75 257.375 C111.12318359 256.05048828 111.12318359 256.05048828 111.50390625 254.69921875 C111.77074219 253.82910156 112.03757812 252.95898438 112.3125 252.0625 C112.71662109 250.73798828 112.71662109 250.73798828 113.12890625 249.38671875 C113.33386719 248.72285156 113.53882813 248.05898438 113.75 247.375 C114.40484375 247.83390625 115.0596875 248.2928125 115.734375 248.765625 C126.70820267 256.14350914 135.12518837 258.61446173 148.25 258.25 C157.73041436 257.99820019 163.87660223 258.6938556 171.75 264.375 C172.41644531 264.85066406 173.08289063 265.32632813 173.76953125 265.81640625 C174.36121094 266.24824219 174.95289063 266.68007813 175.5625 267.125 C179.08255835 269.60974707 181.60232284 270.4438888 185.75 271.375 C187.98940314 266.57627899 188.8060864 261.54644153 189.75 256.375 C189.08613281 256.06046875 188.42226563 255.7459375 187.73828125 255.421875 C186.85527344 254.99390625 185.97226562 254.5659375 185.0625 254.125 C184.19238281 253.70734375 183.32226562 253.2896875 182.42578125 252.859375 C179.58889374 251.28562719 177.2795033 249.39860264 174.75 247.375 C165.57340373 241.90073535 156.80927281 241.93514266 146.41674805 242.47167969 C139.45711792 242.74627502 134.85305061 241.683742 128.75 238.375 C127.34041016 237.77558594 127.34041016 237.77558594 125.90234375 237.1640625 C123.6875 236 123.6875 236 119.75 232.375 C119.75 227.755 119.75 223.135 119.75 218.375 C144.83 218.375 169.91 218.375 195.75 218.375 C195.75 213.095 195.75 207.815 195.75 202.375 C170.67 202.375 145.59 202.375 119.75 202.375 C119.42 197.755 119.09 193.135 118.75 188.375 C118.42 187.385 118.09 186.395 117.75 185.375 C118.75417969 185.42140625 119.75835937 185.4678125 120.79296875 185.515625 C132.45529294 185.88822322 143.15888737 184.73562132 152.75 177.375 C154.13657067 176.4648957 155.53302953 175.56973055 156.9375 174.6875 C157.59105469 174.27113281 158.24460937 173.85476562 158.91796875 173.42578125 C162.33463116 171.46611774 165.08322435 171.26407191 168.93359375 171.3125 C169.94357422 171.32023438 170.95355469 171.32796875 171.99414062 171.3359375 C174.11914121 171.36193139 176.24414121 171.38797288 178.36914062 171.4140625 C179.38041016 171.42179688 180.39167969 171.42953125 181.43359375 171.4375 C182.35712646 171.44910156 183.28065918 171.46070313 184.23217773 171.47265625 C186.56540758 171.3821596 188.51979469 171.03841344 190.75 170.375 C190.27147859 166.54682869 189.66900367 162.86379482 188.7109375 159.125 C188.39382813 157.8875 188.07671875 156.65 187.75 155.375 C183.64608138 155.2572405 179.54260644 155.18723226 175.4375 155.125 C173.71563477 155.07472656 173.71563477 155.07472656 171.95898438 155.0234375 C162.01439428 154.91075093 153.47901187 156.70215331 145.5 162.9375 C137.91728552 168.8075669 132.1919542 169.8125333 122.8125 169.5625 C121.84248047 169.54896484 120.87246094 169.53542969 119.87304688 169.52148438 C117.49810871 169.48638677 115.12435622 169.43722275 112.75 169.375 C112.55664062 168.77171875 112.36328125 168.1684375 112.1640625 167.546875 C111.90367187 166.74765625 111.64328125 165.9484375 111.375 165.125 C110.99214844 163.94164062 110.99214844 163.94164062 110.6015625 162.734375 C109.79826333 160.50872042 108.85288338 158.46568328 107.75 156.375 C108.56082031 156.15585938 109.37164062 155.93671875 110.20703125 155.7109375 C122.46604418 152.20020737 132.21002135 147.61052867 140.2265625 137.515625 C146.74140703 129.36335966 154.17248517 127.84198958 164.1640625 126.18359375 C167.75425305 125.37404098 170.54445634 124.15530963 173.75 122.375 C172.33707905 117.5475201 170.32025846 113.6587641 167.75 109.375 C166.90824219 109.51550781 166.06648438 109.65601563 165.19921875 109.80078125 C162.89126092 110.18500526 160.5812909 110.55732387 158.26953125 110.91796875 C145.62298321 113.11678901 134.71882055 117.60840911 127 128.3125 C120.60286221 136.35630845 113.66319819 139.1538432 103.58007812 140.61865234 C99.76730232 140.89889681 98.01733081 140.57614878 94.94140625 138.26171875 C92.92557237 135.721265 91.25811069 133.24239466 89.75 130.375 C91.54422653 129.17884898 93.35689369 128.00873772 95.203125 126.89453125 C105.84663741 120.39842102 112.9449874 113.48368351 117.52734375 101.71875 C121.09157542 94.88635701 125.56314833 91.99432355 132.3125 88.75 C139.15940284 85.45642566 139.15940284 85.45642566 144.75 80.375 C143.34155282 77.15975695 141.64655214 75.05316132 139.125 72.625 C138.17753906 71.70460938 138.17753906 71.70460938 137.2109375 70.765625 C136.48777344 70.07726562 136.48777344 70.07726562 135.75 69.375 C119.40182998 75.60287429 108.08816901 83.68969406 100.56762695 99.74951172 C98.10383223 104.93011608 95.82607355 108.46060036 90.75 111.375 C89.78320312 111.94992188 88.81640625 112.52484375 87.8203125 113.1171875 C79.66525051 117.60346855 79.66525051 117.60346855 76.15234375 116.7265625 C73.75382925 115.37715434 71.60726686 113.94168264 69.4375 112.25 C68.74011719 111.71117187 68.04273438 111.17234375 67.32421875 110.6171875 C66.80472656 110.20726562 66.28523438 109.79734375 65.75 109.375 C66.3790625 108.81554687 67.008125 108.25609375 67.65625 107.6796875 C77.86376303 98.11783041 83.60030855 88.70221619 85.68945312 74.92651367 C87.25014486 65.27505408 93.54362998 60.35209008 100.61108398 54.22924805 C103.35433812 51.82840807 105.43221892 49.81408721 106.75 46.375 C105.01041859 45.17228941 103.25790255 43.9882699 101.5 42.8125 C100.52546875 42.15121094 99.5509375 41.48992187 98.546875 40.80859375 C95.94346477 39.17752627 95.94346477 39.17752627 93.53125 39.49609375 C91.12132558 40.68520119 89.84751853 42.54982985 88.23046875 44.64453125 C86.57774921 46.57633799 84.78012888 48.07966611 82.8125 49.6875 C74.45801147 56.82822321 70.41139243 65.80238762 68.3125 76.375 C66.04998596 87.15320758 61.04369738 94.15283665 51.75 100.375 C49.234375 100.25390625 49.234375 100.25390625 46.75 99.375 C45.86699219 99.12621094 44.98398437 98.87742187 44.07421875 98.62109375 C43.20410156 98.35425781 42.33398438 98.08742188 41.4375 97.8125 C40.55449219 97.54308594 39.67148437 97.27367187 38.76171875 96.99609375 C38.09785156 96.79113281 37.43398438 96.58617187 36.75 96.375 C37.13671875 95.84132813 37.5234375 95.30765625 37.921875 94.7578125 C46.08709623 83.07588708 48.01775814 72.88998594 47.53515625 58.89453125 C47.39453844 50.47024584 49.60251736 44.65583285 54.3125 37.6875 C57.57467669 32.83983528 59.75 29.31642979 59.75 23.375 C55.13 22.385 50.51 21.395 45.75 20.375 C44.4196875 22.85 44.4196875 22.85 43.0625 25.375 C41.18818341 28.83629692 39.26056925 32.17390328 37.0625 35.4375 C32.20694342 43.15178906 31.4032511 50.89531156 31.8125 59.8125 C32.05148576 71.07346956 30.29923404 79.0329664 22.921875 87.81640625 C21.54967963 89.31642585 21.54967963 89.31642585 21.75 91.375 C14.82 90.88 14.82 90.88 7.75 90.375 C7.75 65.295 7.75 40.215 7.75 14.375 C2.47 14.375 -2.81 14.375 -8.25 14.375 Z " fill="#F7EC91" transform="translate(256.25,45.625)"/>
<path d="M0 0 C20.21130227 17.77548427 34.86582462 41.208186 37.78515625 68.3359375 C38.3920638 81.79976498 38.87385797 95.37289454 34.78515625 108.3359375 C34.59179688 108.98256348 34.3984375 109.62918945 34.19921875 110.29541016 C29.41325911 126.11197277 21.98016668 140.09555259 10.78515625 152.3359375 C9.63080078 153.61210937 9.63080078 153.61210937 8.453125 154.9140625 C-8.83594655 173.12484546 -35.19603693 185.87164824 -60.44921875 186.63671875 C-62.62101159 186.65600965 -64.79299354 186.65952493 -66.96484375 186.6484375 C-68.10791992 186.64352295 -69.25099609 186.6386084 -70.42871094 186.63354492 C-98.49964234 186.24532991 -122.88790691 174.2021107 -142.90234375 155.0859375 C-156.38385477 141.09495078 -165.54950392 124.21828661 -170.21484375 105.3359375 C-170.43914062 104.45808594 -170.6634375 103.58023438 -170.89453125 102.67578125 C-173.80904194 88.80191189 -173.70041816 72.07643871 -170.21484375 58.3359375 C-170.06950195 57.72153809 -169.92416016 57.10713867 -169.77441406 56.47412109 C-163.3068674 29.60346565 -146.48189061 6.38909708 -123.14208984 -8.50292969 C-84.71681067 -31.65350325 -34.56813303 -29.29789216 0 0 Z " fill="#E6AA4B" transform="translate(323.21484375,174.6640625)"/>
<path d="M0 0 C0.99660645 0.19335938 1.99321289 0.38671875 3.02001953 0.5859375 C51.42148057 10.14963524 95.61559771 32.56737765 131 67 C132.00377686 67.96510498 132.00377686 67.96510498 133.02783203 68.94970703 C141.96491207 77.56407599 150.36706664 86.27314609 157.72607422 96.28173828 C159.02250666 98.03035682 160.35288718 99.74828803 161.69140625 101.46484375 C169.55567241 111.6795598 175.9411092 122.63725258 182 134 C182.66346436 135.24064209 182.66346436 135.24064209 183.34033203 136.50634766 C194.85522013 158.40601548 202.53600264 182.70217586 207 207 C207.16081055 207.80598633 207.32162109 208.61197266 207.48730469 209.44238281 C212.91249702 237.39610578 212.48097109 270.09984329 207 298 C206.83902832 298.89557617 206.67805664 299.79115234 206.51220703 300.71386719 C198.62297508 344.32063051 178.93350867 385.45856217 150 419 C149.36578125 419.74507813 148.7315625 420.49015625 148.078125 421.2578125 C136.26698485 434.76279833 123.51639772 447.43418743 109 458 C107.85005169 458.85649066 106.70031411 459.71326433 105.55078125 460.5703125 C98.32011211 465.89891985 90.83398008 470.65494549 83.08203125 475.1875 C81.01952404 476.400432 78.99086878 477.67275415 77 479 C76.01 479 75.02 479 74 479 C72.02 474.38 70.04 469.76 68 465 C69.01835937 464.42894531 70.03671875 463.85789062 71.0859375 463.26953125 C98.35879317 447.74182487 124.07743661 427.2411698 143 402 C143.47324707 401.38141113 143.94649414 400.76282227 144.43408203 400.12548828 C168.11163711 369.06848991 183.93394297 333.29268436 190.51513672 294.77392578 C190.83117927 292.96583137 191.17029351 291.16157225 191.53564453 289.36279297 C200.40892906 245.09432748 191.90745158 196.81922508 174 156 C173.68450195 155.2687793 173.36900391 154.53755859 173.04394531 153.78417969 C161.6448857 127.57224882 144.56481977 104.67497767 125 84 C124.12472656 83.07058594 123.24945313 82.14117187 122.34765625 81.18359375 C115.4246642 74.03695144 107.96695324 67.93509826 100 62 C99.4234668 61.56800293 98.84693359 61.13600586 98.25292969 60.69091797 C68.87491806 38.80255752 34.96948353 23.95170816 -1 17 C-2.46535401 16.66760612 -3.93015944 16.33278839 -5.39453125 15.99609375 C-61.65711196 3.47309439 -126.36373042 18.88478125 -174.375 49.1875 C-181.90252619 54.06614346 -189.05176136 59.3281519 -196 65 C-197.00675781 65.80308594 -198.01351562 66.60617188 -199.05078125 67.43359375 C-213.07538415 78.8027546 -226.14189562 91.744538 -236.78955078 106.34521484 C-237.99447093 107.99244131 -239.22699182 109.61571141 -240.46484375 111.23828125 C-262.85010246 141.0396237 -276.08765131 175.63308522 -283 212 C-283.17934082 212.91507324 -283.35868164 213.83014648 -283.54345703 214.77294922 C-293.34449823 266.56176771 -281.59458838 322.02572223 -257 368 C-256.38640625 369.15628906 -255.7728125 370.31257813 -255.140625 371.50390625 C-240.59129728 397.92716878 -219.85868778 422.53571837 -196 441 C-195.4524707 441.42394043 -194.90494141 441.84788086 -194.34082031 442.28466797 C-184.3509786 449.96074792 -173.88268651 456.66489143 -163 463 C-162.38753418 463.3619043 -161.77506836 463.72380859 -161.14404297 464.09667969 C-136.3999476 478.59490209 -108.97314998 485.95829927 -81 491 C-80.28054199 491.13567383 -79.56108398 491.27134766 -78.81982422 491.41113281 C-64.14341722 494.10858271 -48.86245029 493.26417511 -34 493 C-33.11038574 492.98598145 -32.22077148 492.97196289 -31.30419922 492.95751953 C-14.49357949 492.60782403 2.39351838 489.51822132 18.41772461 484.48730469 C21.10099178 483.66539731 23.52807871 482.99450341 26.34765625 483.02734375 C28.94821119 484.55816687 29.32190397 486.56861439 30.25 489.375 C30.58515625 490.35210937 30.9203125 491.32921875 31.265625 492.3359375 C32 495 32 495 32 498 C10.48921055 504.3968319 -11.48826076 509.0878271 -34.01171875 509.203125 C-34.93436523 509.21018463 -35.85701172 509.21724426 -36.80761719 509.22451782 C-75.04023383 509.45071542 -75.04023383 509.45071542 -92 506 C-92.99805664 505.80664062 -93.99611328 505.61328125 -95.02441406 505.4140625 C-136.11124885 497.29443184 -173.20444662 479.92470131 -206 454 C-207.03769531 453.18789063 -208.07539063 452.37578125 -209.14453125 451.5390625 C-224.71123494 438.86988389 -239.27786525 424.31201036 -251 408 C-251.8637527 406.83011544 -252.72835469 405.6608575 -253.59375 404.4921875 C-268.73707742 383.8661757 -280.8192165 361.25702873 -289 337 C-289.41306396 335.77748535 -289.41306396 335.77748535 -289.83447266 334.53027344 C-293.07255506 324.75942323 -295.60485473 314.87781263 -297.75 304.8125 C-297.94875732 303.88783936 -298.14751465 302.96317871 -298.35229492 302.01049805 C-301.64499027 285.80388823 -302.37530278 269.8696298 -302.3125 253.375 C-302.31034485 252.35676147 -302.3081897 251.33852295 -302.30596924 250.28942871 C-302.25626609 235.6652116 -301.94207988 221.37195362 -299 207 C-298.70996094 205.50509033 -298.70996094 205.50509033 -298.4140625 203.97998047 C-290.78540781 165.37168872 -275.07257683 129.21833121 -251 98 C-250.03513672 96.74703125 -250.03513672 96.74703125 -249.05078125 95.46875 C-234.96644299 77.53819756 -218.6231663 60.25059511 -200 47 C-199.38237793 46.55398437 -198.76475586 46.10796875 -198.12841797 45.6484375 C-166.2928961 22.75691487 -130.61290977 7.10612895 -92 0 C-91.19933105 -0.16081055 -90.39866211 -0.32162109 -89.57373047 -0.48730469 C-61.49587547 -5.9794441 -28.01022065 -5.73396692 0 0 Z " fill="#010100" transform="translate(302,3)"/>
<path d="M0 0 C0.78450531 0.00093658 1.56901062 0.00187317 2.37728882 0.00283813 C21.74065553 0.05304907 39.24547918 2.53901073 58.0625 7.1875 C59.10921875 7.43371094 60.1559375 7.67992187 61.234375 7.93359375 C85.68528042 14.0463201 109.58448932 25.63288084 130.0625 40.1875 C131.12210937 40.93515625 132.18171875 41.6828125 133.2734375 42.453125 C150.78043284 55.22725808 166.78113838 69.99823996 179.73144531 87.40771484 C181.07998129 89.21087465 182.45554965 90.99067595 183.8359375 92.76953125 C218.50122957 137.98961056 232.47000498 197.17796223 225.98168945 253.36401367 C221.12955678 289.98986867 208.2545006 324.88417335 187.0625 355.1875 C186.59086426 355.86264648 186.11922852 356.53779297 185.63330078 357.23339844 C178.24981181 367.67979767 169.97640308 377.03064279 161.0625 386.1875 C160.2375 387.05246094 159.4125 387.91742188 158.5625 388.80859375 C143.25471215 404.5810823 124.55360226 417.20517242 105.0625 427.1875 C104.3195166 427.57389648 103.5765332 427.96029297 102.81103516 428.35839844 C84.89059814 437.59541782 65.7195594 443.82956702 46.0625 448.1875 C45.216875 448.38859375 44.37125 448.5896875 43.5 448.796875 C41.02844792 449.34796431 38.56281921 449.78572704 36.0625 450.1875 C34.94746094 450.373125 33.83242188 450.55875 32.68359375 450.75 C9.76312182 454.1121286 -15.23684809 453.72868893 -37.9375 449.1875 C-39.20722656 448.94773437 -40.47695312 448.70796875 -41.78515625 448.4609375 C-45.19081509 447.77452564 -48.56147417 447.00653585 -51.9375 446.1875 C-53.09894531 445.91292969 -54.26039063 445.63835937 -55.45703125 445.35546875 C-93.67115991 435.79176243 -128.30080131 415.87830102 -156.52636719 388.55175781 C-157.86294251 387.25958084 -159.21618122 385.98470491 -160.5703125 384.7109375 C-167.44503829 378.09482208 -173.24007468 370.81217713 -178.9375 363.1875 C-179.37094727 362.6095166 -179.80439453 362.0315332 -180.25097656 361.43603516 C-200.36931671 334.43109108 -213.9894479 304.10865801 -220.9375 271.1875 C-221.11571289 270.36813965 -221.29392578 269.5487793 -221.47753906 268.70458984 C-233.2474779 212.85743108 -220.4008754 153.64658279 -190.71484375 105.5078125 C-188.86191131 102.67131552 -186.94049515 99.91960177 -184.9375 97.1875 C-184.25558594 96.23488281 -183.57367188 95.28226562 -182.87109375 94.30078125 C-168.11092352 74.10126385 -150.9511278 55.92231094 -129.9375 42.1875 C-128.57093543 43.94878344 -127.21955915 45.72186088 -125.875 47.5 C-125.12089844 48.48613281 -124.36679688 49.47226563 -123.58984375 50.48828125 C-123.04457031 51.37902344 -122.49929687 52.26976562 -121.9375 53.1875 C-123.27190002 57.19070005 -125.92654967 58.6978448 -129.1875 61.125 C-172.41358689 94.23907171 -200.02644516 144.75808904 -207.80371094 198.38720703 C-214.60037656 252.32911778 -200.47121035 308.85201284 -167.41943359 352.28564453 C-163.42947693 357.40619847 -159.23650158 362.32522562 -154.9375 367.1875 C-154.1434375 368.10402344 -153.349375 369.02054687 -152.53125 369.96484375 C-147.97574017 375.15219655 -143.27827012 379.81935793 -137.9375 384.1875 C-137.41945801 384.61788574 -136.90141602 385.04827148 -136.36767578 385.49169922 C-127.28723199 393.02176114 -117.97994498 399.98956439 -107.9375 406.1875 C-107.27476074 406.59709961 -106.61202148 407.00669922 -105.92919922 407.42871094 C-83.0443675 421.33877947 -57.353353 430.1314215 -30.9375 434.1875 C-30.27943359 434.29191406 -29.62136719 434.39632813 -28.94335938 434.50390625 C-8.9323358 437.55872917 12.09381404 437.48999553 32.0625 434.1875 C32.8241748 434.0745459 33.58584961 433.9615918 34.37060547 433.84521484 C64.23629352 429.37702558 94.51173196 417.94430007 119.0625 400.1875 C119.71009277 399.7234375 120.35768555 399.259375 121.02490234 398.78125 C129.45639522 392.70250179 137.57089944 386.41074472 145.0625 379.1875 C145.62291992 378.65286133 146.18333984 378.11822266 146.76074219 377.56738281 C155.68855792 369.01527737 163.81099057 360.20525282 171.0625 350.1875 C171.46742676 349.63755371 171.87235352 349.08760742 172.28955078 348.52099609 C205.01704755 303.6341881 216.81733999 247.27523335 208.96875 192.74609375 C202.58236093 152.21867429 184.03262942 115.80670054 157.0625 85.1875 C156.62373535 84.68557129 156.1849707 84.18364258 155.73291016 83.66650391 C150.51102354 77.71117337 145.19328733 72.19804379 139.0625 67.1875 C138.56717773 66.76919922 138.07185547 66.35089844 137.56152344 65.91992188 C93.4426167 28.66625899 37.50700177 12.15473713 -19.70361328 16.47167969 C-51.10624362 19.7221809 -80.15746786 30.56213014 -107.9375 45.1875 C-109.1374038 43.42504778 -110.32209517 41.65223019 -111.5 39.875 C-112.49193359 38.39580078 -112.49193359 38.39580078 -113.50390625 36.88671875 C-114.21353516 35.55060547 -114.21353516 35.55060547 -114.9375 34.1875 C-113.70721513 30.49664538 -112.86762941 30.31186166 -109.51171875 28.55078125 C-108.58061279 28.05989014 -107.64950684 27.56899902 -106.69018555 27.06323242 C-105.67867432 26.54736572 -104.66716309 26.03149902 -103.625 25.5 C-102.06036011 24.69816284 -102.06036011 24.69816284 -100.46411133 23.88012695 C-76.93074637 12.00172132 -52.13157571 4.40255539 -25.9375 1.1875 C-25.30142822 1.0939624 -24.66535645 1.0004248 -24.01000977 0.90405273 C-16.05306658 -0.16848344 -8.01313432 -0.01228123 0 0 Z " fill="#040301" transform="translate(254.9375,30.8125)"/>
<path d="M0 0 C0.33 0 0.66 0 1 0 C1.14153824 4.84922308 0.69667027 9.03966605 -0.4375 13.75 C-3.55878037 26.71763826 -3.27877535 39.99068419 -3.3125 53.25 C-3.31511841 54.23254761 -3.31773682 55.21509521 -3.32043457 56.22741699 C-3.32463614 70.93110442 -2.53807235 84.6757431 1 99 C1.28491574 100.34531164 1.5650969 101.69163735 1.83984375 103.0390625 C6.16043655 122.59123822 13.14632487 145.30144708 26 161 C26.95671831 162.53830234 27.87688055 164.10025507 28.75 165.6875 C29.39195313 166.83798828 29.39195313 166.83798828 30.046875 168.01171875 C31 170 31 170 31 172 C31.57105469 171.81824219 32.14210937 171.63648438 32.73046875 171.44921875 C37.62936201 169.93048395 42.46851185 168.6902165 47.5 167.6875 C57.41707564 165.37931514 63.42151976 160.91108075 70.0625 153.4375 C77.75339132 144.82220529 85.33749549 140.37985038 97.15625 139.5390625 C102.07308684 140.12868318 103.41765327 141.58059216 106.5 145.375 C107.72285618 147.21384716 108.90958299 149.07965449 110 151 C107.01581599 153.32025548 103.91957832 155.29338116 100.6875 157.25 C91.79332193 162.92285126 87.35651735 168.45568638 83 178 C78.54729769 187.30852994 72.01586546 191.31263405 62.88720703 195.55273438 C59.76458831 197.01756074 57.22903363 198.32677488 55 201 C56.65091778 205.29238623 59.73754566 207.8793915 63 211 C63.75216797 210.61521484 63.75216797 210.61521484 64.51953125 210.22265625 C66.52051342 209.23634535 68.54423081 208.29623579 70.57421875 207.37109375 C83.70521312 201.28413135 90.88566653 194.90423611 97.06152344 181.74658203 C101.53393484 172.43752039 108.17580162 168.59699023 117.16796875 163.87109375 C120 163 120 163 122.5625 163.62109375 C125.18328045 165.10368269 127.46828541 166.73563302 129.8125 168.625 C130.60269531 169.25664062 131.39289063 169.88828125 132.20703125 170.5390625 C132.79871094 171.02117187 133.39039063 171.50328125 134 172 C133.34 172.639375 132.68 173.27875 132 173.9375 C130.99525455 174.95366301 129.99600282 175.97526633 129 177 C128.0409375 177.98226562 128.0409375 177.98226562 127.0625 178.984375 C120.56914399 185.92045983 116.34015375 192.48490835 115 202 C113.34079776 213.22822206 108.32203522 219.24513435 99.90136719 226.44702148 C96.50773225 229.38024782 94.21923315 231.51289025 93 236 C93.70125 236.268125 94.4025 236.53625 95.125 236.8125 C98 238 98 238 101.1875 239.625 C103.77769146 241.14640338 103.77769146 241.14640338 106 241 C107.3037111 239.67487122 107.3037111 239.67487122 108.625 237.9375 C110.89338033 235.17118253 113.21486241 232.92841531 116 230.6875 C123.7221874 224.11920267 127.28956047 215.41979167 128.875 205.625 C130.54040569 196.59290927 133.86630489 191.73996075 140.4375 185.4375 C141.28018433 184.61294312 141.28018433 184.61294312 142.13989258 183.77172852 C146.27492787 179.99121125 146.27492787 179.99121125 149.578125 180.03125 C150.37734375 180.3509375 151.1765625 180.670625 152 181 C152.88300781 181.32097656 153.76601562 181.64195312 154.67578125 181.97265625 C155.54589844 182.33230469 156.41601562 182.69195312 157.3125 183.0625 C158.19550781 183.42472656 159.07851562 183.78695312 159.98828125 184.16015625 C160.65214844 184.43730469 161.31601563 184.71445312 162 185 C160.87428721 187.26766183 159.72886002 189.52238653 158.5625 191.76953125 C157.7890625 193.27580078 157.7890625 193.27580078 157 194.8125 C156.484375 195.80894531 155.96875 196.80539062 155.4375 197.83203125 C152.07560983 205.24097942 151.93217276 211.22822564 152.25 219.1875 C152.44484937 228.73888054 151.70221024 235.08399049 146 243 C145.52433594 243.67804688 145.04867187 244.35609375 144.55859375 245.0546875 C143.37316204 246.70367609 142.18664388 248.3518835 141 250 C139.68868374 253.2582888 139.68868374 253.2582888 139 256 C142.465 257.485 142.465 257.485 146 259 C146 259.66 146 260.32 146 261 C147.14855469 261.25394531 148.29710937 261.50789063 149.48046875 261.76953125 C150.22538574 261.93469238 150.97030273 262.09985352 151.73779297 262.27001953 C153.3888583 262.63564313 155.04023307 262.99987184 156.69189453 263.36279297 C161.27572153 264.3745987 165.8259875 265.46544779 170.375 266.625 C208.43189144 275.15981757 250.66819395 271.32661109 287 258 C287.84224121 257.69239746 288.68448242 257.38479492 289.55224609 257.06787109 C297.00908967 254.31468606 304.28559575 251.5317253 311.24267578 247.66088867 C313 247 313 247 316 248 C264.46789058 278.96810299 207.05269214 291.7230351 147.75 277.3125 C130.65701705 272.90410433 114.51773808 266.37195639 99 258 C98.40670898 257.68595215 97.81341797 257.3719043 97.20214844 257.04833984 C75.95693986 245.74682531 55.35383334 229.56822161 40 211 C39.26652344 210.16597656 38.53304687 209.33195313 37.77734375 208.47265625 C19.75804273 187.65479501 6.72340701 163.0362438 -2 137 C-2.28069336 136.17387207 -2.56138672 135.34774414 -2.85058594 134.49658203 C-17.4105443 90.72238449 -14.82720346 43.28131296 0 0 Z " fill="#F2DF3D" transform="translate(57,185)"/>
<path d="M0 0 C0.33 0 0.66 0 1 0 C0.4535981 6.15612808 -0.59649623 11.71897568 -2.375 17.625 C-4.70050976 25.68275336 -6.6109314 33.72238008 -8 42 C-8.16918945 42.87809326 -8.33837891 43.75618652 -8.51269531 44.66088867 C-10.43146056 55.8345212 -10.37219342 67.01828749 -10.37060547 78.3269043 C-10.37494299 81.76728188 -10.41126053 85.20633554 -10.44921875 88.64648438 C-10.55639012 109.33278241 -8.01603072 129.25749913 -1.9375 149.0625 C-1.42993164 150.7959668 -1.42993164 150.7959668 -0.91210938 152.56445312 C0.83861951 158.4735864 2.74630346 164.26395615 5 170 C5.66 170 6.32 170 7 170 C7.18997559 170.53141602 7.37995117 171.06283203 7.57568359 171.61035156 C14.8487606 191.7677816 23.70066497 210.41266721 36 228 C36.70745361 229.01271973 36.70745361 229.01271973 37.42919922 230.04589844 C44.39010023 239.89440653 52.09713888 248.81488985 60.50195312 257.45507812 C61.74005065 258.73191664 62.95865619 260.02762426 64.171875 261.328125 C69.62109518 267.05679236 75.85973757 271.81273481 82.14111328 276.58105469 C83.92946993 277.94616223 85.69762242 279.33426714 87.46484375 280.7265625 C104.95357332 294.27654301 125.45880345 303.98190718 146 312 C146 312.66 146 313.32 146 314 C154.52532177 316.63470999 163.11469914 319.04046166 171.72460938 321.38134766 C173.16935604 321.77415753 174.61344975 322.1693832 176.05664062 322.56787109 C195.29631339 327.84775138 214.09204759 329.55582278 234 329.4375 C235.60708832 329.43343643 235.60708832 329.43343643 237.24664307 329.42929077 C260.93525411 329.33863038 283.24413461 326.84604425 306 320 C307.14984375 319.67128906 308.2996875 319.34257812 309.484375 319.00390625 C318.15603352 316.45528466 326.57104284 313.24606823 335 310 C338 314.625 338 314.625 338 318 C336.37750059 318.83819158 334.75191503 319.6704116 333.125 320.5 C332.22007812 320.9640625 331.31515625 321.428125 330.3828125 321.90625 C328 323 328 323 326 323 C326.33 323.7425 326.66 324.485 327 325.25 C328 328 328 328 328 332 C326.06532058 332.83986084 324.12714871 333.67168027 322.1875 334.5 C320.56908203 335.19609375 320.56908203 335.19609375 318.91796875 335.90625 C316 337 316 337 313 337 C312.34 334.69 311.68 332.38 311 330 C306.38 331.65 301.76 333.3 297 335 C295 332 295 332 294 329 C292.56145763 329.265241 291.12424025 329.53766477 289.6875 329.8125 C288.88699219 329.96332031 288.08648437 330.11414063 287.26171875 330.26953125 C284.41647411 330.90672975 281.6450036 331.6509248 278.83984375 332.44140625 C263.91138305 336.55487563 248.46485892 338.70051454 233 339 C231.90719727 339.03109863 230.81439453 339.06219727 229.68847656 339.09423828 C211.08181558 339.58544623 193.34793766 338.46304182 175 335 C174.16758789 334.85046875 173.33517578 334.7009375 172.47753906 334.546875 C110.20939111 323.19194046 56.23542862 283.40838997 20.52197266 232.22949219 C2.29206314 205.5250434 -9.88057842 174.66307168 -16 143 C-16.33283996 141.5464627 -16.66762554 140.09337013 -17.00390625 138.640625 C-27.06859221 93.4320356 -18.36415361 41.83254326 0 0 Z " fill="#DB911E" transform="translate(35,158)"/>
<path d="M0 0 C1.24769691 3.5517772 0.72044302 5.75984764 -0.375 9.3125 C-8.28765892 35.23200423 -1.3489979 64.38220711 10.75 87.8125 C24.26479524 112.7274853 48.34573691 132.17671902 75.51171875 140.30078125 C76.33285156 140.53152344 77.15398437 140.76226562 78 141 C79.7015625 141.556875 79.7015625 141.556875 81.4375 142.125 C97.87184795 146.16150651 115.31205145 146.71078256 131.80859375 142.75390625 C135.19148677 141.95476506 138.55474217 141.44862396 142 141 C136.28211393 145.97722726 128.11329966 147.74452417 121 150 C119.35837891 150.52207031 119.35837891 150.52207031 117.68359375 151.0546875 C91.84902332 157.84474982 63.54084915 152.1632541 40.66796875 139.2265625 C16.47259986 124.91452707 -0.76636613 102.01952037 -8.2578125 75.00390625 C-8.62519531 73.51697266 -8.62519531 73.51697266 -9 72 C-9.22429687 71.12214844 -9.44859375 70.24429688 -9.6796875 69.33984375 C-14.3434826 47.1389013 -11.41018275 19.86216998 0 0 Z " fill="#DB921D" transform="translate(162,208)"/>
<path d="M0 0 C0.79921875 0.3196875 1.5984375 0.639375 2.421875 0.96875 C3.30488281 1.28972656 4.18789062 1.61070312 5.09765625 1.94140625 C5.96777344 2.30105469 6.83789062 2.66070312 7.734375 3.03125 C8.61738281 3.39347656 9.50039062 3.75570313 10.41015625 4.12890625 C11.07402344 4.40605469 11.73789063 4.68320312 12.421875 4.96875 C11.29616221 7.23641183 10.15073502 9.49113653 8.984375 11.73828125 C8.46875 12.74246094 7.953125 13.74664062 7.421875 14.78125 C6.90625 15.77769531 6.390625 16.77414062 5.859375 17.80078125 C2.49748483 25.20972942 2.35404776 31.19697564 2.671875 39.15625 C2.91031497 50.84441143 0.64171317 57.31466984 -6.328125 66.71875 C-8.98748944 70.56005419 -9.7009433 73.42335391 -10.578125 77.96875 C-22.4355158 75.23242905 -33.13042561 69.02597649 -43.578125 62.96875 C-42.17768666 58.02232997 -39.12920669 55.58351022 -35.328125 52.40625 C-25.8885644 44.05775885 -22.66208424 35.39646527 -20.25 23.1484375 C-18.57796996 15.23545812 -14.8745412 10.92030501 -9.140625 5.40625 C-8.57875488 4.85630371 -8.01688477 4.30635742 -7.43798828 3.73974609 C-3.30238432 -0.0400289 -3.30238432 -0.0400289 0 0 Z " fill="#F7EC91" transform="translate(206.578125,365.03125)"/>
<path d="M0 0 C2.140625 2.28515625 2.140625 2.28515625 4.25 5.0625 C4.95640625 5.98160156 5.6628125 6.90070313 6.390625 7.84765625 C7.18726563 8.91306641 7.18726563 8.91306641 8 10 C5.01581599 12.32025548 1.91957832 14.29338116 -1.3125 16.25 C-10.20667807 21.92285126 -14.64348265 27.45568638 -19 37 C-23.45270231 46.30852994 -29.98413454 50.31263405 -39.11279297 54.55273438 C-42.23541169 56.01756074 -44.77096637 57.32677488 -47 60 C-51.15554385 58.43681645 -53.51362407 55.39693318 -56.25 52.0625 C-56.72800049 51.48927002 -57.20600098 50.91604004 -57.69848633 50.32543945 C-62.04591204 45.05871511 -66.08575482 39.59658552 -70 34 C-69.37109375 32.09375 -69.37109375 32.09375 -68 30 C-65.34765625 29.09375 -65.34765625 29.09375 -62.0625 28.5 C-48.71533791 25.74512217 -40.06010564 21.73629785 -31.0625 11.4375 C-24.12872704 3.68179043 -10.98212362 -5.00017687 0 0 Z " fill="#F7EC91" transform="translate(159,326)"/>
<path d="M0 0 C2.62078045 1.48258894 4.90578541 3.11453927 7.25 5.00390625 C8.04019531 5.63554687 8.83039063 6.2671875 9.64453125 6.91796875 C10.23621094 7.40007812 10.82789063 7.8821875 11.4375 8.37890625 C10.4475 9.33796875 10.4475 9.33796875 9.4375 10.31640625 C8.43275455 11.33256926 7.43350282 12.35417258 6.4375 13.37890625 C5.798125 14.03375 5.15875 14.68859375 4.5 15.36328125 C-1.99335601 22.29936608 -6.22234625 28.8638146 -7.5625 38.37890625 C-9.47315375 51.30876139 -16.57467033 57.83490679 -26.12963867 66.00366211 C-27.81243535 67.51960306 -27.81243535 67.51960306 -29.5625 70.37890625 C-33.8834696 68.91728437 -37.20481885 66.61202269 -40.75 63.81640625 C-41.31227295 63.37893066 -41.8745459 62.94145508 -42.45385742 62.49072266 C-47.70828418 58.35645732 -52.67746682 53.9441517 -57.5625 49.37890625 C-57.03515625 47.609375 -57.03515625 47.609375 -55.5625 45.37890625 C-53.05010418 44.02250296 -50.60249939 42.8404699 -48 41.69140625 C-36.4266551 36.16706295 -30.87642712 29.57787781 -25.50097656 18.12548828 C-21.02856516 8.81642664 -14.38669838 4.97589648 -5.39453125 0.25 C-2.5625 -0.62109375 -2.5625 -0.62109375 0 0 Z " fill="#F6EC91" transform="translate(179.5625,348.62109375)"/>
<path d="M0 0 C3.40847581 0.99760268 5.97851061 1.98489671 8.90332031 4.04052734 C14.21212023 7.10573768 20.01553719 6.61064405 25.984375 6.6015625 C27.23575256 6.61013275 28.48713013 6.618703 29.77642822 6.62753296 C32.41956068 6.63899763 35.06112536 6.64192165 37.70410156 6.63134766 C40.39488608 6.62208813 43.0838628 6.63589398 45.77441406 6.67236328 C49.67828629 6.72165218 53.58022882 6.72966356 57.484375 6.7265625 C58.67432068 6.74498199 59.86426636 6.76340149 61.090271 6.78237915 C68.6013866 6.70013969 73.45379841 5.30020289 79.77593994 1.18930054 C80.50987976 0.79683136 81.24381958 0.40436218 82 0 C85 1 85 1 86.421875 3.1796875 C86.86015625 4.06914062 87.2984375 4.95859375 87.75 5.875 C88.19859375 6.75929688 88.6471875 7.64359375 89.109375 8.5546875 C90 11 90 11 89 14 C79.77220949 21.05129771 71.34907672 23.23076434 59.72265625 23.09765625 C58.29884999 23.10562114 56.87505462 23.11579762 55.45127869 23.1280365 C52.49001129 23.14419177 49.53068663 23.1315303 46.56958008 23.09790039 C42.8182494 23.05793745 39.07220317 23.09533453 35.32126808 23.15259743 C5.56423382 23.54092104 5.56423382 23.54092104 -6 13 C-4.43664532 8.19540447 -2.58939127 4.31565212 0 0 Z " fill="#050301" transform="translate(214,295)"/>
<path d="M0 0 C2.3259353 1.77066193 4.32902338 3.66361931 6.33984375 5.78125 C4.83071417 10.76137761 1.78322526 14.02384942 -1.66015625 17.78125 C-6.06675084 15.70817122 -10.03099001 12.99648604 -14.1015625 10.33984375 C-16.63656685 8.66496086 -16.63656685 8.66496086 -19.66015625 7.78125 C-19.66015625 12.07125 -19.66015625 16.36125 -19.66015625 20.78125 C-24.94015625 20.78125 -30.22015625 20.78125 -35.66015625 20.78125 C-35.66015625 16.49125 -35.66015625 12.20125 -35.66015625 7.78125 C-42.78322834 11.05160691 -42.78322834 11.05160691 -49.09765625 15.59375 C-51.66015625 17.78125 -51.66015625 17.78125 -54.66015625 17.78125 C-56.484375 16.171875 -56.484375 16.171875 -58.34765625 14.03125 C-58.97027344 13.33515625 -59.59289062 12.6390625 -60.234375 11.921875 C-61.66015625 9.78125 -61.66015625 9.78125 -61.66015625 5.78125 C-46.43376049 -13.83393042 -18.76630343 -12.41680227 0 0 Z " fill="#060402" transform="translate(238.66015625,220.21875)"/>
<path d="M0 0 C3.47877418 2.33332414 6.75236931 4.85550072 10 7.5 C8.55575365 10.73861303 6.74227753 13.11969163 4.375 15.75 C3.74335938 16.45640625 3.11171875 17.1628125 2.4609375 17.890625 C1.97882813 18.42171875 1.49671875 18.9528125 1 19.5 C-2.84534619 17.68632198 -6.20137355 15.35991406 -9.68359375 12.9375 C-12.3407469 11.19548866 -12.3407469 11.19548866 -17 9.5 C-17 13.79 -17 18.08 -17 22.5 C-21.95 22.5 -26.9 22.5 -32 22.5 C-32 17.88 -32 13.26 -32 8.5 C-38.20826966 11.75555604 -43.83595328 14.75465977 -49 19.5 C-52.44428265 18.05218207 -54.36130962 16.22305391 -56.75 13.375 C-57.36359375 12.65054688 -57.9771875 11.92609375 -58.609375 11.1796875 C-59.06828125 10.62539062 -59.5271875 10.07109375 -60 9.5 C-46.68792329 -10.46811506 -18.83202225 -11.73845891 0 0 Z " fill="#050301" transform="translate(326,218.5)"/>
<path d="M0 0 C3.58102841 3.38208239 6.56773474 6.69676146 9 11 C7.39144665 15.82566004 3.25882248 17.88705867 -0.75 20.8125 C-1.56210937 21.43576172 -2.37421875 22.05902344 -3.2109375 22.70117188 C-4.00242187 23.28060547 -4.79390625 23.86003906 -5.609375 24.45703125 C-6.33092773 24.99303955 -7.05248047 25.52904785 -7.79589844 26.08129883 C-10 27 -10 27 -12.53881836 26.33520508 C-14.82750587 25.09357905 -16.75708591 23.82464282 -18.76953125 22.1796875 C-19.43017578 21.64472656 -20.09082031 21.10976563 -20.77148438 20.55859375 C-21.44501953 20.00300781 -22.11855469 19.44742187 -22.8125 18.875 C-23.50537109 18.31167969 -24.19824219 17.74835938 -24.91210938 17.16796875 C-26.61264326 15.784086 -28.30833994 14.39470449 -30 13 C-29.22025434 9.3455697 -27.97775106 7.52118297 -25.4375 4.75 C-24.47650391 3.69039063 -24.47650391 3.69039063 -23.49609375 2.609375 C-22.75552734 1.81273437 -22.75552734 1.81273437 -22 1 C-18.92789731 2.05329235 -16.93303916 3.0571617 -14.4375 5.1875 C-12.24987805 7.24076646 -12.24987805 7.24076646 -10.11328125 6.8046875 C-7.62030099 5.8554196 -5.84769232 4.58069232 -3.75 2.9375 C-2.69039063 2.11572266 -2.69039063 2.11572266 -1.609375 1.27734375 C-0.81273437 0.64505859 -0.81273437 0.64505859 0 0 Z " fill="#040301" transform="translate(267,260)"/>
<path d="M0 0 C1.01034498 1.74404788 2.00792422 3.49549561 3 5.25 C3.556875 6.22453125 4.11375 7.1990625 4.6875 8.203125 C6 11 6 11 6 15 C4.06532058 15.83986084 2.12714871 16.67168027 0.1875 17.5 C-0.89144531 17.9640625 -1.97039062 18.428125 -3.08203125 18.90625 C-6 20 -6 20 -9 20 C-9.67220351 18.06441401 -10.33758077 16.12645628 -11 14.1875 C-11.37125 13.10855469 -11.7425 12.02960938 -12.125 10.91796875 C-13 8 -13 8 -13 5 C-11.21046815 4.16209211 -9.41830305 3.32980604 -7.625 2.5 C-6.62726563 2.0359375 -5.62953125 1.571875 -4.6015625 1.09375 C-2 0 -2 0 0 0 Z " fill="#030200" transform="translate(357,475)"/>
<path d="M0 0 C4.62 0 9.24 0 14 0 C14 4.62 14 9.24 14 14 C9.38 14 4.76 14 0 14 C0 9.38 0 4.76 0 0 Z " fill="#FFFFFF" transform="translate(309,265)"/>
<path d="M0 0 C4.62 0 9.24 0 14 0 C14 4.62 14 9.24 14 14 C9.38 14 4.76 14 0 14 C0 9.38 0 4.76 0 0 Z " fill="#FFFFFF" transform="translate(189,265)"/>
<path d="M0 0 C1.63195312 0.48919922 1.63195312 0.48919922 3.296875 0.98828125 C11.82029809 3.52810387 20.3427954 5.94829255 29 8 C29 8.66 29 9.32 29 10 C22.43212078 9.47509457 16.76249198 8.1888398 10.5625 6 C9.36077148 5.59007812 9.36077148 5.59007812 8.13476562 5.171875 C2.40448113 3.20224057 2.40448113 3.20224057 0 2 C0 1.34 0 0.68 0 0 Z " fill="#D59B41" transform="translate(181,470)"/>
<path d="M0 0 C0.33 0 0.66 0 1 0 C0.85831863 1.43791516 0.71148957 2.8753237 0.5625 4.3125 C0.48128906 5.11300781 0.40007813 5.91351563 0.31640625 6.73828125 C0 9 0 9 -1 12 C-3.0625 13.1875 -3.0625 13.1875 -5 14 C-3.45730076 9.27934033 -1.92205381 4.58335908 0 0 Z " fill="#C7851B" transform="translate(35,158)"/>
<path d="M0 0 C0.99 0.33 1.98 0.66 3 1 C4.65049717 5.43028188 5.22973141 9.29050618 5 14 C3.37723842 11.56585763 2.38255208 9.68680554 1.375 7 C0.98441406 5.9790625 0.98441406 5.9790625 0.5859375 4.9375 C0 3 0 3 0 0 Z " fill="#DDA246" transform="translate(36,317)"/>
<path d="M0 0 C0.33 0 0.66 0 1 0 C1.17655168 4.50206785 1.17699288 7.98974995 -1 12 C-1.99 12.66 -2.98 13.32 -4 14 C-3.52188823 12.22888156 -3.0424722 10.45811517 -2.5625 8.6875 C-2.29566406 7.70136719 -2.02882812 6.71523437 -1.75390625 5.69921875 C-1.21920575 3.78482474 -0.62855462 1.88566385 0 0 Z " fill="#CDBD38" transform="translate(57,185)"/>
<path d="M0 0 C-3.63 1.98 -7.26 3.96 -11 6 C-11 5.01 -11 4.02 -11 3 C-9.73581754 2.30034557 -8.46334598 1.61565237 -7.1875 0.9375 C-6.47980469 0.55464844 -5.77210938 0.17179687 -5.04296875 -0.22265625 C-3 -1 -3 -1 0 0 Z " fill="#E3D13D" transform="translate(373,433)"/>
<path d="M0 0 C-3.3 1.32 -6.6 2.64 -10 4 C-9.67 3.01 -9.34 2.02 -9 1 C-3.79245283 -1.26415094 -3.79245283 -1.26415094 0 0 Z " fill="#CE8A1E" transform="translate(304,350)"/>
</svg>
